<?xml version="1.0" encoding="UTF-8"?>
<svg version="1.1" xmlns="http://www.w3.org/2000/svg" width="450" height="450">
<path d="M0 0 C1.23073242 -0.02416992 1.23073242 -0.02416992 2.48632812 -0.04882812 C8.63010914 -0.05373138 13.82484401 0.5865936 18.3828125 5.125 C31.10019232 26.44755299 32.00692132 57.11622836 31.5625 81.3125 C33.5425 81.3125 35.5225 81.3125 37.5625 81.3125 C37.85125 80.508125 38.14 79.70375 38.4375 78.875 C39.5625 76.3125 39.5625 76.3125 41.5625 75.3125 C44.62297867 75.20324382 47.66104775 75.1551571 50.72216797 75.15136719 C51.67188477 75.14640228 52.62160156 75.14143738 53.60009766 75.13632202 C56.75163489 75.12167966 59.9031218 75.11489511 63.0546875 75.109375 C65.23943077 75.10362547 67.42417401 75.09786771 69.60891724 75.09210205 C74.1938704 75.0815863 78.778806 75.07574732 83.36376953 75.07226562 C89.24420057 75.06677825 95.12440037 75.04274732 101.00475883 75.01429367 C105.51885663 74.99568786 110.03289849 74.9904628 114.5470314 74.98892975 C116.71520376 74.98589828 118.88337501 74.97785321 121.05150986 74.96474457 C124.08253422 74.94772645 127.11299047 74.94955399 130.14404297 74.95605469 C131.04289215 74.9468399 131.94174133 74.93762512 132.86782837 74.9281311 C136.47378568 74.95240847 138.91153753 74.97684664 142.15115356 76.64727783 C143.5625 78.3125 143.5625 78.3125 143.5625 81.3125 C145.5425 81.3125 147.5225 81.3125 149.5625 81.3125 C149.62195801 80.10025757 149.62195801 80.10025757 149.68261719 78.86352539 C152.76954965 18.55322198 152.76954965 18.55322198 163.5625 4.9375 C169.08521561 0.10512384 173.88699661 -0.02728523 180.9375 0 C182.175 -0.02416992 182.175 -0.02416992 183.4375 -0.04882812 C189.83782948 -0.05390775 194.92334191 0.82415094 199.75 5.375 C205.25034297 14.28934896 208.95135896 25.79386506 208.5625 36.3125 C210.09970703 36.26029297 210.09970703 36.26029297 211.66796875 36.20703125 C213.02862936 36.17887965 214.3893078 36.15158096 215.75 36.125 C216.76030273 36.08729492 216.76030273 36.08729492 217.79101562 36.04882812 C222.28246916 35.98309954 225.00962099 36.54418853 228.5625 39.3125 C233.63799374 44.64311115 234.67211979 51.40680344 235.88671875 58.43359375 C236.22123047 59.85865234 236.22123047 59.85865234 236.5625 61.3125 C237.2225 61.6425 237.8825 61.9725 238.5625 62.3125 C238.5625 63.6325 238.5625 64.9525 238.5625 66.3125 C240.8725 66.3125 243.1825 66.3125 245.5625 66.3125 C248.02196923 71.56682063 249.46551833 76.62110098 250.5625 82.3125 C251.614375 82.250625 252.66625 82.18875 253.75 82.125 C257.84233783 82.32626252 259.44860291 82.71758576 262.5625 85.3125 C265.7633856 90.36897146 266.02351416 94.52087967 265.9375 100.3125 C265.94910156 101.09367187 265.96070313 101.87484375 265.97265625 102.6796875 C265.94337944 108.47649632 264.92195583 112.87168363 260.75 117.1875 C257.91048172 118.64782369 255.70954859 118.52707149 252.5625 118.3125 C252.2325 119.3025 251.9025 120.2925 251.5625 121.3125 C250.9025 122.3025 250.2425 123.2925 249.5625 124.3125 C248.74459435 126.60672534 248.04811769 128.92260233 247.34375 131.25390625 C246.5625 133.3125 246.5625 133.3125 244.5625 135.3125 C241.87410615 135.58241906 239.27108064 135.39987357 236.5625 135.3125 C236.53671875 135.88355469 236.5109375 136.45460938 236.484375 137.04296875 C235.92148195 145.08978081 234.83221462 155.54570549 228.9375 161.5625 C224.75984675 164.64077082 221.47065114 164.43150342 216.4375 164.375 C215.68339844 164.37048828 214.92929687 164.36597656 214.15234375 164.36132812 C212.28902873 164.34953499 210.42575445 164.33159942 208.5625 164.3125 C208.54832031 164.9209375 208.53414063 165.529375 208.51953125 166.15625 C207.92811843 177.0254586 205.26635299 190.22345436 197.5625 198.3125 C192.18189476 200.95843989 187.00366087 200.68012864 181.125 200.6875 C180.10083984 200.71199219 179.07667969 200.73648438 178.02148438 200.76171875 C172.05429053 200.78489232 168.15616136 200.53866845 163.5625 196.3125 C149.48835325 177.55887806 150.89913394 144.30096817 149.5625 122.3125 C147.9125 122.3125 146.2625 122.3125 144.5625 122.3125 C144.2325 121.3225 143.9025 120.3325 143.5625 119.3125 C143.3459375 120.5190625 143.3459375 120.5190625 143.125 121.75 C142.5625 124.3125 142.5625 124.3125 141.5625 125.3125 C138.4430818 125.42918511 135.34552167 125.48053883 132.22509766 125.48950195 C131.24465988 125.49607315 130.26422211 125.50264435 129.2540741 125.50941467 C125.99490289 125.52919913 122.73577784 125.54082085 119.4765625 125.55078125 C117.8121216 125.55689454 117.8121216 125.55689454 116.11405563 125.56313133 C110.24270563 125.5840127 104.37137915 125.59830623 98.5 125.60766602 C92.42096075 125.61874302 86.3422863 125.65315215 80.26337624 125.69283772 C75.60176897 125.71892223 70.94024974 125.72735051 66.2785759 125.73094749 C64.03699654 125.73583355 61.79542162 125.74750438 59.55391312 125.76598549 C56.42187437 125.79020633 53.29079416 125.78944322 50.15869141 125.7824707 C49.22662369 125.79528076 48.29455597 125.80809082 47.33424377 125.82128906 C41.06720751 125.77024305 41.06720751 125.77024305 38.46273804 123.40812683 C37.5625 121.3125 37.5625 121.3125 37.5625 119.3125 C35.5825 119.3125 33.6025 119.3125 31.5625 119.3125 C31.57700195 120.01052734 31.59150391 120.70855469 31.60644531 121.42773438 C32.29227956 181.19329056 32.29227956 181.19329056 16.9375 197.5625 C11.8535673 201.30855567 6.24210263 200.53274765 0.1875 200.5625 C-1.37484375 200.5934375 -1.37484375 200.5934375 -2.96875 200.625 C-12.65156361 200.67452846 -12.65156361 200.67452846 -16.4375 197.3125 C-24.37382406 189.00100425 -26.19531394 175.30677366 -27.4375 164.3125 C-29.06558594 164.39951172 -29.06558594 164.39951172 -30.7265625 164.48828125 C-32.17183176 164.53520558 -33.61714784 164.58070287 -35.0625 164.625 C-36.13177734 164.6878418 -36.13177734 164.6878418 -37.22265625 164.75195312 C-41.12126506 164.84137076 -43.67974762 164.55869755 -46.8203125 162.1328125 C-49.42563441 159.3252865 -50.55988451 157.48849508 -51.6875 153.875 C-51.996875 152.92109375 -52.30625 151.9671875 -52.625 150.984375 C-52.893125 150.10265625 -53.16125 149.2209375 -53.4375 148.3125 C-53.85 147.095625 -54.2625 145.87875 -54.6875 144.625 C-54.935 143.861875 -55.1825 143.09875 -55.4375 142.3125 C-55.7675 142.3125 -56.0975 142.3125 -56.4375 142.3125 C-56.4375 140.6625 -56.4375 139.0125 -56.4375 137.3125 C-58.4175 137.3125 -60.3975 137.3125 -62.4375 137.3125 C-65.51252723 132.43487061 -67.29180462 127.9386785 -68.7265625 122.3515625 C-69.23828261 120.12155349 -69.23828261 120.12155349 -71.4375 119.3125 C-72.71625 119.085625 -73.995 118.85875 -75.3125 118.625 C-78.82719033 117.77662647 -79.38078936 117.37938948 -81.875 114.4375 C-85.42438434 107.33873132 -85.58343138 98.69927978 -83.94140625 90.98046875 C-82.38561821 86.94596757 -80.11889816 84.48787164 -76.4375 82.3125 C-72.9725 81.8175 -72.9725 81.8175 -69.4375 81.3125 C-67.7875 76.3625 -66.1375 71.4125 -64.4375 66.3125 C-61.7975 65.9825 -59.1575 65.6525 -56.4375 65.3125 C-55.46984883 62.03737296 -54.5430523 58.79474208 -53.8125 55.45703125 C-52.42509172 49.23734301 -51.00180467 43.02170323 -46.4375 38.3125 C-42.34325668 36.08059391 -38.72769947 36.10146823 -34.125 36.1875 C-32.24361328 36.21457031 -32.24361328 36.21457031 -30.32421875 36.2421875 C-29.37160156 36.26539063 -28.41898438 36.28859375 -27.4375 36.3125 C-27.33953125 35.51328125 -27.2415625 34.7140625 -27.140625 33.890625 C-25.66413842 23.04608562 -23.57350655 10.37618649 -15.4375 2.3125 C-10.39533211 -0.05361477 -5.4585832 -0.02133926 0 0 Z " fill="#4A6CAD" transform="translate(134.4375,124.6875)"/>
<path d="M0 0 C1.23073242 -0.02416992 1.23073242 -0.02416992 2.48632812 -0.04882812 C8.63010914 -0.05373138 13.82484401 0.5865936 18.3828125 5.125 C31.10019232 26.44755299 32.00692132 57.11622836 31.5625 81.3125 C32.27277344 81.37308594 32.98304688 81.43367188 33.71484375 81.49609375 C35.09349609 81.62177734 35.09349609 81.62177734 36.5 81.75 C37.87478516 81.87181641 37.87478516 81.87181641 39.27734375 81.99609375 C41.5625 82.3125 41.5625 82.3125 42.5625 83.3125 C43.89663447 103.93690666 43.89663447 103.93690666 38.5625 111.3125 C35.93230129 112.99582718 34.74188129 113.3125 31.5625 113.3125 C31.61470703 114.73949219 31.61470703 114.73949219 31.66796875 116.1953125 C33.20617017 180.21902279 33.20617017 180.21902279 16.9375 197.5625 C11.8535673 201.30855567 6.24210263 200.53274765 0.1875 200.5625 C-1.37484375 200.5934375 -1.37484375 200.5934375 -2.96875 200.625 C-12.65156361 200.67452846 -12.65156361 200.67452846 -16.4375 197.3125 C-24.37382406 189.00100425 -26.19531394 175.30677366 -27.4375 164.3125 C-29.06558594 164.39951172 -29.06558594 164.39951172 -30.7265625 164.48828125 C-32.17183176 164.53520558 -33.61714784 164.58070287 -35.0625 164.625 C-36.13177734 164.6878418 -36.13177734 164.6878418 -37.22265625 164.75195312 C-41.12126506 164.84137076 -43.67974762 164.55869755 -46.8203125 162.1328125 C-49.42563441 159.3252865 -50.55988451 157.48849508 -51.6875 153.875 C-51.996875 152.92109375 -52.30625 151.9671875 -52.625 150.984375 C-52.893125 150.10265625 -53.16125 149.2209375 -53.4375 148.3125 C-53.85 147.095625 -54.2625 145.87875 -54.6875 144.625 C-54.935 143.861875 -55.1825 143.09875 -55.4375 142.3125 C-55.7675 142.3125 -56.0975 142.3125 -56.4375 142.3125 C-56.4375 140.6625 -56.4375 139.0125 -56.4375 137.3125 C-58.4175 137.3125 -60.3975 137.3125 -62.4375 137.3125 C-65.51252723 132.43487061 -67.29180462 127.9386785 -68.7265625 122.3515625 C-69.23828261 120.12155349 -69.23828261 120.12155349 -71.4375 119.3125 C-72.71625 119.085625 -73.995 118.85875 -75.3125 118.625 C-78.82719033 117.77662647 -79.38078936 117.37938948 -81.875 114.4375 C-85.42438434 107.33873132 -85.58343138 98.69927978 -83.94140625 90.98046875 C-82.38561821 86.94596757 -80.11889816 84.48787164 -76.4375 82.3125 C-72.9725 81.8175 -72.9725 81.8175 -69.4375 81.3125 C-67.7875 76.3625 -66.1375 71.4125 -64.4375 66.3125 C-61.7975 65.9825 -59.1575 65.6525 -56.4375 65.3125 C-55.46984883 62.03737296 -54.5430523 58.79474208 -53.8125 55.45703125 C-52.42509172 49.23734301 -51.00180467 43.02170323 -46.4375 38.3125 C-42.34325668 36.08059391 -38.72769947 36.10146823 -34.125 36.1875 C-32.24361328 36.21457031 -32.24361328 36.21457031 -30.32421875 36.2421875 C-29.37160156 36.26539063 -28.41898438 36.28859375 -27.4375 36.3125 C-27.33953125 35.51328125 -27.2415625 34.7140625 -27.140625 33.890625 C-25.66413842 23.04608562 -23.57350655 10.37618649 -15.4375 2.3125 C-10.39533211 -0.05361477 -5.4585832 -0.02133926 0 0 Z " fill="#4D70AF" transform="translate(134.4375,124.6875)"/>
<path d="M0 0 C0.80042725 0.00604248 1.60085449 0.01208496 2.42553711 0.01831055 C7.94683006 0.11103455 12.9909265 0.43322916 18.25 2.25 C18.745 3.735 18.745 3.735 19.25 5.25 C19.91 5.25 20.57 5.25 21.25 5.25 C23.2985602 8.72140954 23.78354826 11.96813945 24.3125 15.9375 C24.52849766 19.91552043 24.52849766 19.91552043 26.25 23.25 C28.69264429 38.11659477 28.55940331 53.15544457 28.51074219 68.17675781 C28.49996238 72.13882547 28.51072607 76.10044551 28.5234375 80.0625 C28.52211666 82.62239682 28.51955582 85.18229336 28.515625 87.7421875 C28.51967346 88.90603973 28.52372192 90.06989197 28.52789307 91.26901245 C28.48908216 98.15732884 27.8757078 104.70456758 26.67816162 111.49050903 C26.14778333 114.44336552 26.14778333 114.44336552 26.25 118.25 C25.62212429 120.59406932 24.95491267 122.92793475 24.25 125.25 C23.90864073 126.58130115 23.57074044 127.91358148 23.25 129.25 C20.4375 129.9375 20.4375 129.9375 17.25 130.25 C15.375 128.8125 15.375 128.8125 14.25 127.25 C13.26 127.745 13.26 127.745 12.25 128.25 C8.50703044 128.57182694 4.75509522 128.5744418 1 128.625 C-0.03769531 128.66238281 -1.07539062 128.69976562 -2.14453125 128.73828125 C-10.75301737 128.83722937 -10.75301737 128.83722937 -14.34375 126.06640625 C-16.7276774 123.27612759 -17.91518593 121.288836 -19 117.8125 C-19.309375 116.85859375 -19.61875 115.9046875 -19.9375 114.921875 C-20.3396875 113.59929687 -20.3396875 113.59929687 -20.75 112.25 C-21.1625 111.033125 -21.575 109.81625 -22 108.5625 C-22.2475 107.799375 -22.495 107.03625 -22.75 106.25 C-23.08 106.25 -23.41 106.25 -23.75 106.25 C-23.75 104.6 -23.75 102.95 -23.75 101.25 C-25.73 101.25 -27.71 101.25 -29.75 101.25 C-32.82502723 96.37237061 -34.60430462 91.8761785 -36.0390625 86.2890625 C-36.55078261 84.05905349 -36.55078261 84.05905349 -38.75 83.25 C-40.02875 83.023125 -41.3075 82.79625 -42.625 82.5625 C-46.13969033 81.71412647 -46.69328936 81.31688948 -49.1875 78.375 C-52.73688434 71.27623132 -52.89593138 62.63677978 -51.25390625 54.91796875 C-49.69811821 50.88346757 -47.43139816 48.42537164 -43.75 46.25 C-40.285 45.755 -40.285 45.755 -36.75 45.25 C-35.1 40.3 -33.45 35.35 -31.75 30.25 C-27.79 29.755 -27.79 29.755 -23.75 29.25 C-22.78234883 25.97487296 -21.8555523 22.73224208 -21.125 19.39453125 C-19.73759172 13.17484301 -18.31430467 6.95920323 -13.75 2.25 C-9.33958981 -0.24001018 -4.92492577 -0.05846665 0 0 Z " fill="#4262A4" transform="translate(101.75,160.75)"/>
<path d="M0 0 C0.82293045 -0.00708481 1.6458609 -0.01416962 2.49372864 -0.02146912 C3.39303101 -0.0189917 4.29233337 -0.01651428 5.21888733 -0.01396179 C6.16875015 -0.01907272 7.11861298 -0.02418365 8.09725952 -0.02944946 C11.24341599 -0.04337233 14.38935407 -0.04238667 17.53553772 -0.04008484 C19.71885256 -0.04397026 21.90216664 -0.04830461 24.08547974 -0.05307007 C28.66447905 -0.06053807 33.24340128 -0.06023677 37.82240295 -0.05497742 C43.69497944 -0.04918181 49.56724064 -0.06611335 55.43976498 -0.08932209 C59.94958344 -0.10404233 64.45932567 -0.10493346 68.96916389 -0.10181236 C71.13453865 -0.10232643 73.29991757 -0.10758006 75.46526909 -0.11762428 C78.49142414 -0.1299382 81.51696118 -0.12322719 84.54310608 -0.11161804 C85.88902328 -0.12308365 85.88902328 -0.12308365 87.26213074 -0.13478088 C93.30007878 -0.0834917 93.30007878 -0.0834917 96.48379517 1.61380005 C98.64206194 4.04518701 98.75443253 6.11684955 99.13319397 9.32319641 C99.28014709 10.56585266 99.42710022 11.80850891 99.57850647 13.08882141 C100.14697062 19.09665066 100.44055194 25.1207591 100.72694397 31.14741516 C100.94319926 35.54760953 101.37933702 39.89165705 101.94569397 44.26069641 C100.62569397 44.26069641 99.30569397 44.26069641 97.94569397 44.26069641 C97.80131897 45.06507141 97.65694397 45.86944641 97.50819397 46.69819641 C96.94569397 49.26069641 96.94569397 49.26069641 95.94569397 50.26069641 C92.82627577 50.37738152 89.72871564 50.42873525 86.60829163 50.43769836 C85.62785385 50.44426956 84.64741608 50.45084076 83.63726807 50.45761108 C80.37809686 50.47739554 77.11897181 50.48901726 73.85975647 50.49897766 C72.19531557 50.50509095 72.19531557 50.50509095 70.4972496 50.51132774 C64.6258996 50.53220911 58.75457312 50.54650264 52.88319397 50.55586243 C46.80415472 50.56693943 40.72548027 50.60134856 34.64657021 50.64103413 C29.98496294 50.66711864 25.32344371 50.67554692 20.66176987 50.67914391 C18.42019051 50.68402996 16.17861559 50.69570079 13.93710709 50.7141819 C10.80506833 50.73840274 7.67398813 50.73763963 4.54188538 50.73066711 C3.60981766 50.74347717 2.67774994 50.75628723 1.71743774 50.76948547 C-4.54959852 50.71843946 -4.54959852 50.71843946 -7.15406799 48.35632324 C-8.05430603 46.26069641 -8.05430603 46.26069641 -8.05430603 44.26069641 C-10.03430603 44.26069641 -12.01430603 44.26069641 -14.05430603 44.26069641 C-14.05430603 42.28069641 -14.05430603 40.30069641 -14.05430603 38.26069641 C-12.96118103 37.95132141 -11.86805603 37.64194641 -10.74180603 37.32319641 C-7.69912235 35.95583654 -6.37119155 34.80371396 -5.11680603 31.69819641 C-3.06487074 24.1911161 -3.8298346 15.967549 -4.05430603 8.26069641 C-5.37430603 7.93069641 -6.69430603 7.60069641 -8.05430603 7.26069641 C-7.74180603 4.88569641 -7.74180603 4.88569641 -7.05430603 2.26069641 C-4.00819724 0.22995722 -3.41959282 0.00982193 0 0 Z " fill="#474749" transform="translate(180.05430603027344,199.7393035888672)"/>
<path d="M0 0 C0.76054688 0.09023437 1.52109375 0.18046875 2.3046875 0.2734375 C4.125 0.625 4.125 0.625 5.125 1.625 C5.62449097 4.03617915 6.02429892 6.45807261 6.4296875 8.88671875 C7.01483897 11.70851927 7.01483897 11.70851927 8.64355469 14.26196289 C10.47537151 18.42038028 10.55885181 21.6880586 10.5234375 26.171875 C10.52630768 26.98311829 10.52917786 27.79436157 10.53213501 28.63018799 C10.53416903 30.34135641 10.52868559 32.05254843 10.51611328 33.76367188 C10.50013323 36.35340801 10.51594054 38.94156375 10.53515625 41.53125 C10.56268515 61.55200173 10.56268515 61.55200173 5.68505859 67.33105469 C3.28710371 69.31996875 1.208181 69.33952028 -1.875 69.625 C-2.62910156 69.70105469 -3.38320312 69.77710938 -4.16015625 69.85546875 C-6.49059386 69.99567394 -8.57140714 70.00666036 -10.875 69.625 C-14.20682835 66.29317165 -14.95564504 61.2153048 -16.12890625 56.734375 C-16.66573571 54.44042103 -16.66573571 54.44042103 -18.875 53.625 C-20.15375 53.398125 -21.4325 53.17125 -22.75 52.9375 C-26.26469033 52.08912647 -26.81828936 51.69188948 -29.3125 48.75 C-32.86188434 41.65123132 -33.02093138 33.01177978 -31.37890625 25.29296875 C-29.82311821 21.25846757 -27.55639816 18.80037164 -23.875 16.625 C-20.41 16.13 -20.41 16.13 -16.875 15.625 C-15.225 10.675 -13.575 5.725 -11.875 0.625 C-3.95529197 -0.50638686 -3.95529197 -0.50638686 0 0 Z " fill="#B2364F" transform="translate(81.875,190.375)"/>
<path d="M0 0 C0.33 1.32 0.66 2.64 1 4 C3.31 4 5.62 4 8 4 C10.45946923 9.25432063 11.90301833 14.30860098 13 20 C14.5778125 19.9071875 14.5778125 19.9071875 16.1875 19.8125 C20.27983783 20.01376252 21.88610291 20.40508576 25 23 C28.2008856 28.05647146 28.46101416 32.20837967 28.375 38 C28.38660156 38.78117187 28.39820313 39.56234375 28.41015625 40.3671875 C28.38087944 46.16399632 27.35945583 50.55918363 23.1875 54.875 C20.34798172 56.33532369 18.14704859 56.21457149 15 56 C14.67 56.99 14.34 57.98 14 59 C13.34 59.99 12.68 60.98 12 62 C11.18209435 64.29422534 10.48561769 66.61010233 9.78125 68.94140625 C9 71 9 71 7 73 C4.31160615 73.26991906 1.70858064 73.08737357 -1 73 C-1.02317125 64.07260443 -1.04093952 55.14521922 -1.05181217 46.21780014 C-1.05703051 42.07243538 -1.06410917 37.9270912 -1.07543945 33.78173828 C-1.08630554 29.78117928 -1.09228475 25.78064007 -1.09487724 21.78006744 C-1.09672477 20.25385476 -1.1003325 18.72764316 -1.10573006 17.2014389 C-1.11298985 15.06363077 -1.11398885 12.92590441 -1.11352539 10.78808594 C-1.115746 9.5711908 -1.11796661 8.35429565 -1.12025452 7.1005249 C-1.02047988 4.52803333 -0.76354775 2.44095129 0 0 Z " fill="#C94966" transform="translate(372,187)"/>
<path d="M0 0 C12.87 0.495 12.87 0.495 26 1 C27.127687 5.51074799 27.19197106 9.50415553 27.1875 14.125 C27.1862915 15.40008423 27.1862915 15.40008423 27.18505859 16.70092773 C27.03618082 31.96381918 27.03618082 31.96381918 23 36 C20.32963563 36.28185565 17.7396862 36.46596118 15.0625 36.5625 C9.45163445 36.74727904 9.45163445 36.74727904 4 38 C2.46586854 32.08263578 1.77649361 26.46809987 1.5 20.375 C1.18084005 13.55443369 0.61920016 6.81120179 0 0 Z " fill="#797880" transform="translate(278,206)"/>
<path d="M0 0 C2.75129505 5.48081203 3.45210079 9.71789164 3.3125 15.8125 C3.30412109 16.60060059 3.29574219 17.38870117 3.28710938 18.20068359 C3.16877972 23.95268834 2.56352581 29.44389936 1 35 C-4.6843583 37.17698829 -9.31635054 37.52850943 -15 35 C-21.11813598 27.96414362 -20.55915886 19.91604223 -20 11 C-19.18619892 7.17449411 -17.50132244 4.63069598 -15.0625 1.5625 C-10.22817695 -0.90399135 -5.32434293 -0.3057039 0 0 Z " fill="#959295" transform="translate(70,207)"/>
<path d="M0 0 C0.99 0 1.98 0 3 0 C5.0485602 3.47140954 5.53354826 6.71813945 6.0625 10.6875 C6.27849766 14.66552043 6.27849766 14.66552043 8 18 C10.44264429 32.86659477 10.30940331 47.90544457 10.26074219 62.92675781 C10.24996238 66.88882547 10.26072607 70.85044551 10.2734375 74.8125 C10.27211666 77.37239682 10.26955582 79.93229336 10.265625 82.4921875 C10.26967346 83.65603973 10.27372192 84.81989197 10.27789307 86.01901245 C10.23908216 92.90732884 9.6257078 99.45456758 8.42816162 106.24050903 C7.89778333 109.19336552 7.89778333 109.19336552 8 113 C7.37212429 115.34406932 6.70491267 117.67793475 6 120 C5.65864073 121.33130115 5.32074044 122.66358148 5 124 C2.03 124.495 2.03 124.495 -1 125 C-1.99 123.35 -2.98 121.7 -4 120 C-3.360625 119.195625 -2.72125 118.39125 -2.0625 117.5625 C0.23977192 114.15773167 0.5798568 111.09322612 0.82421875 107.05078125 C1 105 1 105 2 102 C4.30661847 86.8480187 4.31648115 71.42108128 4.26074219 56.13574219 C4.24986204 52.57991068 4.26079373 49.02456788 4.2734375 45.46875 C4.27211824 43.1796864 4.26956069 40.8906231 4.265625 38.6015625 C4.26967346 37.55255768 4.27372192 36.50355286 4.27789307 35.42276001 C4.24063589 29.57510859 3.60742239 24.61837963 2 19 C1.75091826 16.42187556 1.56157785 13.8371552 1.4375 11.25 C1.19143123 5.54961851 1.19143123 5.54961851 0 0 Z " fill="#0E1B4D" transform="translate(120,166)"/>
<path d="M0 0 C8.19230769 -0.17307692 8.19230769 -0.17307692 12 3 C15.32812549 8.17176335 15.37188051 12.44645734 15.1875 18.375 C15.17396484 19.20644531 15.16042969 20.03789062 15.14648438 20.89453125 C15.11139059 22.92997066 15.05759228 24.96507291 15 27 C13.02 27.99 13.02 27.99 11 29 C10.67 28.34 10.34 27.68 10 27 C9.236875 26.896875 8.47375 26.79375 7.6875 26.6875 C3.98631315 25.74068476 2.9935567 24.20393041 1 21 C-0.0434341 16.37523079 -0.12192404 11.84235433 -0.0625 7.125 C-0.05798828 6.43664062 -0.05347656 5.74828125 -0.04882812 5.0390625 C-0.03716336 3.35933665 -0.01923271 1.67965625 0 0 Z " fill="#B3AEAF" transform="translate(385,207)"/>
<path d="M0 0 C0.33 0 0.66 0 1 0 C1.07476069 5.22864743 1.12888763 10.45697628 1.16479492 15.68603516 C1.17978093 17.46082996 1.20017682 19.23558837 1.22631836 21.01025391 C1.55329135 43.79578373 1.55329135 43.79578373 -3.44067383 49.70458984 C-7.66613512 53.21489165 -14.81821566 52.07851188 -20 52 C-18.35 46.39 -16.7 40.78 -15 35 C-10.05 34.67 -5.1 34.34 0 34 C0 22.78 0 11.56 0 0 Z " fill="#741826" transform="translate(91,208)"/>
<path d="M0 0 C1.59217388 1.59217388 1.5827637 3.50678838 2 5.6875 C2.2475 6.96173828 2.2475 6.96173828 2.5 8.26171875 C3.03086114 11.16901297 3.51414124 14.08484743 4 17 C-2.435 18.485 -2.435 18.485 -9 20 C-12.40664673 15.74169158 -13.52975192 14.31171318 -14.75 9.4375 C-14.99234375 8.50808594 -15.2346875 7.57867187 -15.484375 6.62109375 C-16 4 -16 4 -16 0 C-10.49913409 -1.0533573 -5.52081885 -1.06625257 0 0 Z " fill="#C24665" transform="translate(86,191)"/>
<path d="M0 0 C2.66307229 3.55076306 3.38515406 4.60292842 4.125 8.625 C4.74637689 11.91688481 4.74637689 11.91688481 6 15 C6.08658569 17.55362604 6.11562516 20.0795442 6.09765625 22.6328125 C6.0962413 23.38464813 6.09482635 24.13648376 6.09336853 24.91110229 C6.08776465 27.3157751 6.07521157 29.72035527 6.0625 32.125 C6.0574855 33.75390491 6.0529225 35.38281127 6.04882812 37.01171875 C6.03864424 41.00787702 6.01906972 45.00383465 6 49 C13.92 48.01 13.92 48.01 22 47 C22 47.66 22 48.32 22 49 C18.71480525 50.09506492 16.26336585 50.09960608 12.8125 50.0625 C11.18248047 50.04896484 11.18248047 50.04896484 9.51953125 50.03515625 C8.68808594 50.02355469 7.85664062 50.01195312 7 50 C6.87882812 50.56847656 6.75765625 51.13695312 6.6328125 51.72265625 C5.58677946 56.54245464 4.40795516 61.2732934 3 66 C2.01 65.67 1.02 65.34 0 65 C-1.16796875 62.12890625 -1.16796875 62.12890625 -2.1875 58.5625 C-2.53167969 57.38816406 -2.87585938 56.21382812 -3.23046875 55.00390625 C-4 52 -4 52 -4 50 C-1.525 49.505 -1.525 49.505 1 49 C2.79966361 42.60476683 3.21777799 36.35416974 3.25 29.75 C3.25902344 28.98187988 3.26804687 28.21375977 3.27734375 27.42236328 C3.25377449 22.89608272 2.7100362 19.26151879 1 15 C-0.65 14.67 -2.3 14.34 -4 14 C-2.68 9.38 -1.36 4.76 0 0 Z " fill="#A93049" transform="translate(69,193)"/>
<path d="M0 0 C0.99 0 1.98 0 3 0 C5.0485602 3.47140954 5.53354826 6.71813945 6.0625 10.6875 C6.27849766 14.66552043 6.27849766 14.66552043 8 18 C9.00581962 23.36437132 9.11116338 28.55299453 9 34 C8.67 34 8.34 34 8 34 C7.67 31.36 7.34 28.72 7 26 C7.00666183 26.7345491 7.01332367 27.46909821 7.02018738 28.22590637 C7.08096977 35.23955796 7.12630863 42.25311426 7.15543652 49.26695728 C7.17091614 52.87055247 7.19181807 56.47392531 7.22631836 60.07739258 C7.56411792 96.30764625 7.56411792 96.30764625 3 110 C2.34 110 1.68 110 1 110 C0.91773332 106.95613276 1.02391783 104.92824652 2 102 C4.30661847 86.8480187 4.31648115 71.42108128 4.26074219 56.13574219 C4.24986204 52.57991068 4.26079373 49.02456788 4.2734375 45.46875 C4.27211824 43.1796864 4.26956069 40.8906231 4.265625 38.6015625 C4.26967346 37.55255768 4.27372192 36.50355286 4.27789307 35.42276001 C4.24063589 29.57510859 3.60742239 24.61837963 2 19 C1.75091826 16.42187556 1.56157785 13.8371552 1.4375 11.25 C1.19143123 5.54961851 1.19143123 5.54961851 0 0 Z " fill="#2F509F" transform="translate(120,166)"/>
<path d="M0 0 C0.33 1.32 0.66 2.64 1 4 C3.31 4 5.62 4 8 4 C10.65034316 9.90303705 13 15.42542901 13 22 C9.04 22 5.08 22 1 22 C1 32.89 1 43.78 1 55 C0.67 55 0.34 55 0 55 C-0.16830406 47.81021608 -0.32817993 40.62028027 -0.48217773 33.43017578 C-0.53557055 30.98384348 -0.59089777 28.5375526 -0.64819336 26.09130859 C-0.73017974 22.57658826 -0.80522472 19.06177802 -0.87890625 15.546875 C-0.90594131 14.4519574 -0.93297638 13.35703979 -0.96083069 12.22894287 C-0.98092697 11.20818665 -1.00102325 10.18743042 -1.02172852 9.13574219 C-1.04171402 8.23861511 -1.06169952 7.34148804 -1.08229065 6.41717529 C-1.00410089 4.12045796 -0.65215213 2.1959121 0 0 Z " fill="#D05E82" transform="translate(372,187)"/>
<path d="M0 0 C2.97 0.33 5.94 0.66 9 1 C9.05437005 3.85442753 9.09384974 6.70780076 9.125 9.5625 C9.15013672 10.76229492 9.15013672 10.76229492 9.17578125 11.98632812 C9.22193218 17.63981695 9.17480555 23.40696262 5.375 27.9375 C4.694375 28.4634375 4.694375 28.4634375 4 29 C3.01 28.67 2.02 28.34 1 28 C-0.24905826 24.86549478 -0.1154099 21.69706031 -0.09765625 18.359375 C-0.09443359 17.28945312 -0.09121094 16.21953125 -0.08789062 15.1171875 C-0.07951172 14.00601563 -0.07113281 12.89484375 -0.0625 11.75 C-0.05798828 10.62335938 -0.05347656 9.49671875 -0.04882812 8.3359375 C-0.03705397 5.55723783 -0.0206084 2.77864591 0 0 Z " fill="#A1A1A7" transform="translate(166,206)"/>
<path d="M0 0 C3.96 0 7.92 0 12 0 C12.37164821 5.82248856 11.37617945 10.64814628 9 16 C7 18 7 18 5.0546875 18.1953125 C3.03645833 18.13020833 1.01822917 18.06510417 -1 18 C-1.09945415 11.88909517 -1.0712828 6.02596573 0 0 Z " fill="#922337" transform="translate(372,242)"/>
<path d="M0 0 C0.33 0 0.66 0 1 0 C1.38297872 19.53191489 1.38297872 19.53191489 -1 28 C-6.68563341 30.17747662 -11.29863648 30.46945286 -17 28 C-19.0625 25.375 -19.0625 25.375 -20 23 C-19.34 22.67 -18.68 22.34 -18 22 C-18 22.99 -18 23.98 -18 25 C-13.29157376 22.88673474 -13.29157376 22.88673474 -10 19 C-9.195625 18.525625 -8.39125 18.05125 -7.5625 17.5625 C-4.93002703 15.95733355 -3.7790354 14.45676317 -2 12 C-1.34 12 -0.68 12 0 12 C0 8.04 0 4.08 0 0 Z " fill="#816768" transform="translate(72,214)"/>
<path d="M0 0 C2.14400105 3.62262247 2.80742945 7.40676673 3.5 11.5 C3.62745605 12.24121094 3.75491211 12.98242188 3.88623047 13.74609375 C7.16687271 33.63679727 8.24389873 53.86480508 8 74 C7.67 74 7.34 74 7 74 C6.93006836 73.20343994 6.86013672 72.40687988 6.78808594 71.58618164 C5.37750011 55.67400247 3.82009679 39.79398466 1.875 23.9375 C1.78891479 23.23480988 1.70282959 22.53211975 1.61413574 21.80813599 C0.60543767 13.48979036 0.60543767 13.48979036 -0.61669922 5.20141602 C-1 2 -1 2 0 0 Z " fill="#5882C4" transform="translate(313,143)"/>
<path d="M0 0 C0.33 0 0.66 0 1 0 C1.04669576 7.46809266 1.08205586 14.93616985 1.10362434 22.40437603 C1.11398513 25.87355965 1.12800012 29.34264214 1.15087891 32.81176758 C1.17711576 36.81592686 1.18653631 40.81998281 1.1953125 44.82421875 C1.20563507 46.04767502 1.21595764 47.27113129 1.22659302 48.53166199 C1.22749798 55.60209797 0.67109145 62.29981013 -0.56936646 69.26399231 C-1.10365385 72.19694426 -1.10365385 72.19694426 -1 76 C-1.62787571 78.34406932 -2.29508733 80.67793475 -3 83 C-3.34135927 84.33130115 -3.67925956 85.66358148 -4 87 C-6.97 87.495 -6.97 87.495 -10 88 C-9.401875 87.01 -8.80375 86.02 -8.1875 85 C-4.92621824 78.45438855 -4.04866269 71.16923582 -3 64 C-2.74839111 62.40671875 -2.74839111 62.40671875 -2.49169922 60.78125 C-0.68755362 48.21929336 -0.55582662 35.67293199 -0.375 23 C-0.33672184 20.76040312 -0.29766481 18.52081942 -0.2578125 16.28125 C-0.16290933 10.85428554 -0.07756786 5.42723851 0 0 Z " fill="#294182" transform="translate(129,203)"/>
<path d="M0 0 C5.99177957 6.56242524 6.44646874 15.21792177 6.36328125 23.66015625 C6.36377975 24.6494664 6.36427826 25.63877655 6.36479187 26.6580658 C6.36246515 28.73633853 6.35282022 30.81461483 6.33618164 32.89282227 C6.31254063 36.057062 6.31563804 39.2204596 6.32226562 42.38476562 C6.31668916 44.41406747 6.30957948 46.44336581 6.30078125 48.47265625 C6.30214836 49.87766136 6.30214836 49.87766136 6.30354309 51.31105042 C6.24410401 56.86896558 5.56708723 61.66238937 4 67 C2.4221875 66.814375 2.4221875 66.814375 0.8125 66.625 C-2.85582868 66.61536816 -2.85582868 66.61536816 -4.54296875 68.3359375 C-5.75230303 69.84671874 -6.88142826 71.4208399 -8 73 C-8.33 73 -8.66 73 -9 73 C-9 71.35 -9 69.7 -9 68 C-10.98 68 -12.96 68 -15 68 C-15 67.67 -15 67.34 -15 67 C-14.01 66.896875 -13.02 66.79375 -12 66.6875 C-5.6936446 65.71869733 -5.6936446 65.71869733 0 63 C1.55104571 60.44690414 2.29588407 57.88629341 3 55 C3.33 54.01 3.66 53.02 4 52 C4.1330752 49.22873199 4.21227364 46.48348648 4.23828125 43.7109375 C4.246353 42.8930777 4.25442474 42.0752179 4.26274109 41.23257446 C4.27657017 39.49930939 4.28729759 37.76601722 4.29516602 36.03271484 C4.30665248 34.27156519 4.3270512 32.51044943 4.35668945 30.74951172 C4.88774338 18.21816689 4.88774338 18.21816689 0.88842773 6.58666992 C-0.34852983 4.37755005 -0.31896698 2.47199409 0 0 Z " fill="#33457D" transform="translate(87,194)"/>
<path d="M0 0 C0.33 0 0.66 0 1 0 C1.268125 1.0725 1.53625 2.145 1.8125 3.25 C3.18505078 7.59909966 3.18505078 7.59909966 6 11 C8.47608101 11.74524194 8.47608101 11.74524194 11 12 C11.99 12.33 12.98 12.66 14 13 C12.74425659 16.87187551 11.65992073 19.06837517 8 21 C4.75 21.1875 4.75 21.1875 2 21 C1.67 21.99 1.34 22.98 1 24 C0.01956036 21.05868109 -0.11621202 19.17498335 -0.09765625 16.11328125 C-0.09443359 15.17548828 -0.09121094 14.23769531 -0.08789062 13.27148438 C-0.07532227 11.80678711 -0.07532227 11.80678711 -0.0625 10.3125 C-0.05798828 9.32443359 -0.05347656 8.33636719 -0.04882812 7.31835938 C-0.03704303 4.87884526 -0.02059011 2.43945311 0 0 Z " fill="#876B69" transform="translate(385,222)"/>
<path d="M0 0 C0.66 0 1.32 0 2 0 C4.35222932 8.43650389 5.85581369 16.86436755 6.93530273 25.5456543 C7.18783214 27.56515613 7.45548276 29.58225975 7.72460938 31.59960938 C8.5896213 38.38277239 9.19432491 44.98458227 9.01489258 51.82519531 C8.99572904 54.62370084 9.5110628 57.24972825 10 60 C10.0830832 62.67332416 10.04613152 65.32437168 10 68 C7.51350483 64.27025725 7.36834666 60.94866177 6.96484375 56.60546875 C6.88126114 55.78049393 6.79767853 54.9555191 6.71156311 54.10554504 C6.4456727 51.46691188 6.19116832 48.82733367 5.9375 46.1875 C5.67805909 43.55864327 5.41625696 40.93003965 5.15272522 38.30158997 C4.98956485 36.66685412 4.82914033 35.03184218 4.67185974 33.39653015 C4.26336494 29.22754528 3.70805247 25.13107483 3 21 C2.93694796 19.20932194 2.91328886 17.41662421 2.9375 15.625 C2.94652344 14.75101563 2.95554688 13.87703125 2.96484375 12.9765625 C2.98224609 11.99816406 2.98224609 11.99816406 3 11 C2.34 11 1.68 11 1 11 C0.67 7.37 0.34 3.74 0 0 Z " fill="#5881C2" transform="translate(130,141)"/>
<path d="M0 0 C0.33 0 0.66 0 1 0 C1.07708558 7.48487626 1.12902627 14.96964745 1.16479492 22.45483398 C1.17973166 24.99263331 1.2000884 27.53040751 1.22631836 30.06811523 C1.56097342 63.31707974 1.56097342 63.31707974 -3 77 C-3.66 77 -4.32 77 -5 77 C-5.08226668 73.95613276 -4.97608217 71.92824652 -4 69 C-3.54571756 65.80294572 -3.29397272 62.58321791 -3.0078125 59.3671875 C-2.92064972 58.395466 -2.83348694 57.42374451 -2.74368286 56.4225769 C-1.76661685 45.00581123 -1.31186993 33.57277532 -0.875 22.125 C-0.78826777 19.96091711 -0.70103031 17.7968544 -0.61328125 15.6328125 C-0.40306335 10.42208793 -0.19956477 5.21114299 0 0 Z " fill="#243F8D" transform="translate(126,199)"/>
<path d="M0 0 C0.33 0 0.66 0 1 0 C1.0544452 2.20805524 1.09299283 4.41650554 1.125 6.625 C1.14820313 7.85476562 1.17140625 9.08453125 1.1953125 10.3515625 C1.0030428 13.94316041 0.30258556 16.66661175 -1 20 C-1.66 20 -2.32 20 -3 20 C-3.33 19.01 -3.66 18.02 -4 17 C-4.66 16.67 -5.32 16.34 -6 16 C-6 15.34 -6 14.68 -6 14 C-11.445 14.495 -11.445 14.495 -17 15 C-16.95875 16.7325 -16.9175 18.465 -16.875 20.25 C-16.77313037 24.52852428 -17.00609999 26.01219998 -19 30 C-19.33 25.71 -19.66 21.42 -20 17 C-21.65 17 -23.3 17 -25 17 C-25 16.34 -25 15.68 -25 15 C-20.09441059 12.5472053 -16.37527611 11.72723821 -10.875 11.4375 C-9.74384766 11.37272461 -9.74384766 11.37272461 -8.58984375 11.30664062 C-6.72678112 11.2005168 -4.86341476 11.09974999 -3 11 C-1.4191773 5.52157697 -1.4191773 5.52157697 0 0 Z " fill="#4C4955" transform="translate(304,230)"/>
<path d="M0 0 C0.33 0 0.66 0 1 0 C1.05847045 3.85410207 1.09375405 7.70808865 1.125 11.5625 C1.14175781 12.64853516 1.15851563 13.73457031 1.17578125 14.85351562 C1.21098659 20.64479442 0.98923674 25.54134642 -1 31 C-5.95 31.495 -5.95 31.495 -11 32 C-11 30.02 -11 28.04 -11 26 C-9.3603125 25.5359375 -9.3603125 25.5359375 -7.6875 25.0625 C-5.41760753 24.06283018 -4.25057891 23.39058207 -2.90234375 21.2890625 C-0.38617268 14.48654975 -0.29606868 7.17711327 0 0 Z " fill="#5B5762" transform="translate(177,212)"/>
<path d="M0 0 C0.66 0 1.32 0 2 0 C6.31527179 12.75583485 9.83288617 33.17865586 4 46 C1.921875 47.2578125 1.921875 47.2578125 0 48 C-2 45 -2 45 -2 42 C-0.02 41.505 -0.02 41.505 2 41 C3.31913771 34.9905949 3.14698004 28.99277839 3.125 22.875 C3.12886719 21.79089844 3.13273438 20.70679688 3.13671875 19.58984375 C3.13478516 18.02556641 3.13478516 18.02556641 3.1328125 16.4296875 C3.13112061 15.01018799 3.13112061 15.01018799 3.12939453 13.56201172 C3.01130114 11.22376264 2.66247566 9.23741781 2 7 C0.68 6.67 -0.64 6.34 -2 6 C-1.125 1.125 -1.125 1.125 0 0 Z " fill="#292C3B" transform="translate(174,201)"/>
<path d="M0 0 C0.33 0 0.66 0 1 0 C1 1.65 1 3.3 1 5 C1.66 5 2.32 5 3 5 C3 4.34 3 3.68 3 3 C3.66 3 4.32 3 5 3 C3.84941444 8.39795989 2.57578241 13.70987333 1 19 C0.01 18.67 -0.98 18.34 -2 18 C-3.16796875 15.12890625 -3.16796875 15.12890625 -4.1875 11.5625 C-4.70376953 9.80099609 -4.70376953 9.80099609 -5.23046875 8.00390625 C-6 5 -6 5 -6 3 C-5.195625 2.87625 -4.39125 2.7525 -3.5625 2.625 C-2.716875 2.41875 -1.87125 2.2125 -1 2 C-0.67 1.34 -0.34 0.68 0 0 Z " fill="#992536" transform="translate(71,240)"/>
<path d="M0 0 C33.33 0 66.66 0 101 0 C101 0.33 101 0.66 101 1 C67.67 1 34.34 1 0 1 C0 0.67 0 0.34 0 0 Z " fill="#201C1C" transform="translate(175,251)"/>
<path d="M0 0 C30.03 0 60.06 0 91 0 C91 0.33 91 0.66 91 1 C60.97 1 30.94 1 0 1 C0 0.67 0 0.34 0 0 Z " fill="#595A60" transform="translate(180,198)"/>
<path d="M0 0 C3 1 3 1 4 2 C4.04092937 4.33297433 4.04241723 6.66705225 4 9 C4.66 9 5.32 9 6 9 C6.67753232 11.83111718 7.34218727 14.66429376 8 17.5 C8.19078125 18.29148438 8.3815625 19.08296875 8.578125 19.8984375 C9.76334941 25.06262957 10.19441282 29.70225061 10 35 C7.70986347 31.5647952 7.82157027 30.014669 8 26 C7.34 26 6.68 26 6 26 C5.88406494 25.44014404 5.76812988 24.88028809 5.64868164 24.3034668 C5.12180947 21.76442215 4.59218569 19.22595912 4.0625 16.6875 C3.88009766 15.80642578 3.69769531 14.92535156 3.50976562 14.01757812 C3.33251953 13.17001953 3.15527344 12.32246094 2.97265625 11.44921875 C2.81031494 10.66893311 2.64797363 9.88864746 2.48071289 9.0847168 C1.99433396 6.8247029 1.99433396 6.8247029 1 4 C-1.00016466 2.79117904 -1.00016466 2.79117904 -3 2 C-2.01 1.34 -1.02 0.68 0 0 Z " fill="#527ABD" transform="translate(90,162)"/>
<path d="M0 0 C0.66 0.33 1.32 0.66 2 1 C2.8358209 22.31343284 2.8358209 22.31343284 -2 29 C-4.63019871 30.68332718 -5.82061871 31 -9 31 C-9 28.36 -9 25.72 -9 23 C-8.34 24.32 -7.68 25.64 -7 27 C-4.98567734 26.49743888 -4.98567734 26.49743888 -3 25 C-1.00921111 19.53955048 -0.5983615 14.33732543 -0.375 8.5625 C-0.33632812 7.73556641 -0.29765625 6.90863281 -0.2578125 6.05664062 C-0.16446908 4.03808927 -0.08119039 2.01907669 0 0 Z " fill="#81838E" transform="translate(175,207)"/>
<path d="M0 0 C0.33 0 0.66 0 1 0 C1.33 9.24 1.66 18.48 2 28 C7.28 27.34 12.56 26.68 18 26 C18 26.66 18 27.32 18 28 C14.43954823 29.18681726 11.56191663 29.09689832 7.8125 29.0625 C6.54019531 29.05347656 5.26789063 29.04445312 3.95703125 29.03515625 C2.49330078 29.01775391 2.49330078 29.01775391 1 29 C1 29.66 1 30.32 1 31 C0.34 31 -0.32 31 -1 31 C-1.16494885 20.6265501 -0.65043638 10.3489074 0 0 Z " fill="#A12B3F" transform="translate(73,214)"/>
<path d="M0 0 C0.33 0 0.66 0 1 0 C1.25 5.625 1.25 5.625 -1 9 C-6.6229897 10.46197732 -10.58528202 9.61491589 -16 8 C-12.34402031 5.56268021 -8.63653475 4.40763997 -4.49609375 3 C-1.87930291 2.14158514 -1.87930291 2.14158514 0 0 Z " fill="#6B5D55" transform="translate(71,234)"/>
<path d="M0 0 C0.66 0 1.32 0 2 0 C2 4.62 2 9.24 2 14 C4.660625 13.87625 4.660625 13.87625 7.375 13.75 C8.37273437 13.70359375 9.37046875 13.6571875 10.3984375 13.609375 C13.1526477 13.27839115 13.1526477 13.27839115 14.3515625 10.953125 C14.56554687 10.30859375 14.77953125 9.6640625 15 9 C16.32 9.66 17.64 10.32 19 11 C19 12.32 19 13.64 19 15 C12.73 15 6.46 15 0 15 C-0.94644447 11.2142221 -0.9693628 9.04738616 -0.5625 5.25 C-0.46066406 4.26515625 -0.35882813 3.2803125 -0.25390625 2.265625 C-0.17011719 1.51796875 -0.08632813 0.7703125 0 0 Z " fill="#3D5BA5" transform="translate(285,192)"/>
<path d="M0 0 C0.66 0.66 1.32 1.32 2 2 C1.77183594 2.69867188 1.54367188 3.39734375 1.30859375 4.1171875 C1.02113281 5.02726562 0.73367187 5.93734375 0.4375 6.875 C0.14746094 7.77992188 -0.14257812 8.68484375 -0.44140625 9.6171875 C-1.26747878 11.9980027 -1.26747878 11.9980027 0 14 C-1.37707107 17.14759102 -2.56159764 19.56159764 -5 22 C-7.5 21.8125 -7.5 21.8125 -10 21 C-10.66 20.01 -11.32 19.02 -12 18 C-10 18 -8 18 -6 18 C-5.57074219 16.71222656 -5.57074219 16.71222656 -5.1328125 15.3984375 C-3.421875 10.265625 -1.7109375 5.1328125 0 0 Z " fill="#354C84" transform="translate(129,302)"/>
<path d="M0 0 C0.33 0 0.66 0 1 0 C3.56124539 8.79665828 4.30109321 17.06706121 4.3125 26.1875 C4.31765625 27.20336182 4.3228125 28.21922363 4.328125 29.26586914 C4.25891281 36.61163079 4.25891281 36.61163079 2 40 C1.97494385 39.30438965 1.9498877 38.6087793 1.92407227 37.89208984 C1.80754026 34.71956545 1.68507432 31.54729645 1.5625 28.375 C1.52318359 27.28058594 1.48386719 26.18617188 1.44335938 25.05859375 C1.40146484 23.99511719 1.35957031 22.93164062 1.31640625 21.8359375 C1.27974854 20.86188965 1.24309082 19.8878418 1.20532227 18.88427734 C0.99103906 15.87412067 0.51459367 12.97183013 0 10 C-0.06305204 8.20932194 -0.08671114 6.41662421 -0.0625 4.625 C-0.05347656 3.75101563 -0.04445313 2.87703125 -0.03515625 1.9765625 C-0.02355469 1.32429687 -0.01195313 0.67203125 0 0 Z " fill="#4A6FB3" transform="translate(97,188)"/>
<path d="M0 0 C0.99 0 1.98 0 3 0 C5.0485602 3.47140954 5.53354826 6.71813945 6.0625 10.6875 C6.27849766 14.66552043 6.27849766 14.66552043 8 18 C9.00581962 23.36437132 9.11116338 28.55299453 9 34 C8.67 34 8.34 34 8 34 C7.34 30.7 6.68 27.4 6 24 C5.67 24 5.34 24 5 24 C4.80664062 22.9378125 4.61328125 21.875625 4.4140625 20.78125 C2.49422977 10.32811513 2.49422977 10.32811513 0 0 Z " fill="#1E367C" transform="translate(120,166)"/>
<path d="M0 0 C0.33 0 0.66 0 1 0 C4.56545638 13.31103717 4.16378718 27.31467141 4 41 C3.67 41 3.34 41 3 41 C2.56721 36.60802563 2.14019898 32.21553688 1.71826172 27.82250977 C1.5742956 26.33180018 1.428821 24.84123539 1.28173828 23.35083008 C0.51342868 15.5553623 -0.21225632 7.84463995 0 0 Z " fill="#527ABC" transform="translate(317,176)"/>
<path d="M0 0 C0.33 0 0.66 0 1 0 C1.268125 1.0725 1.53625 2.145 1.8125 3.25 C3.18505078 7.59909966 3.18505078 7.59909966 6 11 C8.47608101 11.74524194 8.47608101 11.74524194 11 12 C11.99 12.33 12.98 12.66 14 13 C13.34 14.65 12.68 16.3 12 18 C11.34 18 10.68 18 10 18 C9.835 17.360625 9.67 16.72125 9.5 16.0625 C8.218214 13.83880759 8.218214 13.83880759 6.0859375 13.51171875 C4.06424845 13.2724022 2.03158061 13.13106972 0 13 C0 8.71 0 4.42 0 0 Z " fill="#928684" transform="translate(385,222)"/>
<path d="M0 0 C0.66 0.33 1.32 0.66 2 1 C2.34057669 10.81996112 1.28846906 20.29046527 0 30 C-2 28 -2 28 -2.01171875 24.47265625 C-1.91476146 23.00182922 -1.80600555 21.53174788 -1.6875 20.0625 C-1.63408447 19.30138916 -1.58066895 18.54027832 -1.52563477 17.75610352 C-1.09931459 11.83081647 -0.59996312 5.91027495 0 0 Z " fill="#567DBD" transform="translate(163,256)"/>
<path d="M0 0 C7.89352433 8.64528856 6.3551331 20.75490908 6.1875 31.5625 C6.17242858 33.2558475 6.15874451 34.94920794 6.14648438 36.64257812 C6.11366704 40.76204222 6.06202063 44.8808763 6 49 C5.67 49 5.34 49 5 49 C4.9906543 47.98687744 4.98130859 46.97375488 4.97167969 45.92993164 C4.93148878 42.13311488 4.86565331 38.33708389 4.79248047 34.54077148 C4.76443813 32.90480728 4.74314119 31.26871181 4.72900391 29.63256836 C4.82542035 17.70509628 4.82542035 17.70509628 0.87304688 6.6328125 C-0.32288438 4.39612675 -0.32030473 2.48236169 0 0 Z " fill="#1F2D57" transform="translate(87,194)"/>
<path d="M0 0 C0.5878125 0.15984375 1.175625 0.3196875 1.78125 0.484375 C1.80823189 2.10928454 1.82763757 3.73432133 1.84375 5.359375 C1.85535156 6.26429688 1.86695312 7.16921875 1.87890625 8.1015625 C1.78125 10.484375 1.78125 10.484375 0.78125 12.484375 C0.12125 12.484375 -0.53875 12.484375 -1.21875 12.484375 C-0.88875 8.854375 -0.55875 5.224375 -0.21875 1.484375 C-5.79705016 1.35968401 -5.79705016 1.35968401 -11.21875 2.484375 C-10.88875 4.464375 -10.55875 6.444375 -10.21875 8.484375 C-10.87875 8.484375 -11.53875 8.484375 -12.21875 8.484375 C-12.54875 6.504375 -12.87875 4.524375 -13.21875 2.484375 C-9.2559001 -1.31996091 -5.19414459 -1.20708994 0 0 Z " fill="#A9A9AE" transform="translate(67.21875,207.515625)"/>
<path d="M0 0 C0.33 0 0.66 0 1 0 C1.14984013 6.47569972 0.64409902 12.49608114 -0.4375 18.875 C-0.57220703 19.71546875 -0.70691406 20.5559375 -0.84570312 21.421875 C-1.38854023 24.73715332 -1.93503959 27.80511876 -3 31 C-3.66 31 -4.32 31 -5 31 C-5.08226668 27.95613276 -4.97608217 25.92824652 -4 23 C-3.82740252 21.58634448 -3.68405393 20.16895611 -3.5625 18.75 C-3.14505674 14.65508039 -2.17075922 10.95131237 -1 7 C-0.63049535 4.67212073 -0.28647533 2.33954855 0 0 Z " fill="#192C73" transform="translate(126,245)"/>
<path d="M0 0 C0 0.33 0 0.66 0 1 C-5.94 1.495 -5.94 1.495 -12 2 C-11.95875 3.7325 -11.9175 5.465 -11.875 7.25 C-11.77313037 11.52852428 -12.00609999 13.01219998 -14 17 C-14.33 12.71 -14.66 8.42 -15 4 C-16.65 4 -18.3 4 -20 4 C-20 3.34 -20 2.68 -20 2 C-13.24112575 -0.07965362 -7.04440079 -0.21133202 0 0 Z " fill="#394C84" transform="translate(299,243)"/>
<path d="M0 0 C0.33 0 0.66 0 1 0 C1.02902429 3.27081471 1.04680684 6.5415963 1.0625 9.8125 C1.07087891 10.74126953 1.07925781 11.67003906 1.08789062 12.62695312 C1.09111328 13.51962891 1.09433594 14.41230469 1.09765625 15.33203125 C1.10289307 16.15421143 1.10812988 16.9763916 1.11352539 17.82348633 C1 20 1 20 0 23 C-2.375 24.75 -2.375 24.75 -5 26 C-5.99 25.67 -6.98 25.34 -8 25 C-7.37480469 24.74734375 -6.74960938 24.4946875 -6.10546875 24.234375 C-2.93320088 22.37456675 -2.61951751 20.26949836 -1.59375 16.86328125 C-0.44164692 11.30741573 -0.23339302 5.65776863 0 0 Z " fill="#636472" transform="translate(177,212)"/>
<path d="M0 0 C0.66 0 1.32 0 2 0 C2.234375 2.2890625 2.234375 2.2890625 2 5 C0.390625 6.8359375 0.390625 6.8359375 -1.75 8.375 C-2.44609375 8.89835938 -3.1421875 9.42171875 -3.859375 9.9609375 C-6 11 -6 11 -8.265625 10.6640625 C-8.83796875 10.44492188 -9.4103125 10.22578125 -10 10 C-8 7 -8 7 -5.5625 5.5625 C-2.93002703 3.95733355 -1.7790354 2.45676317 0 0 Z " fill="#827977" transform="translate(70,226)"/>
<path d="M0 0 C0 2.97 0 5.94 0 9 C-3.875 4.25 -3.875 4.25 -5 2 C-7.52733235 1.34444881 -7.52733235 1.34444881 -10 1 C-7.65709647 -3.68580706 -3.93645032 -1.31215011 0 0 Z " fill="#5D88C9" transform="translate(128,128)"/>
<path d="M0 0 C0.33 0 0.66 0 1 0 C1.06058594 1.19496094 1.12117188 2.38992187 1.18359375 3.62109375 C1.79215577 15.33528961 1.79215577 15.33528961 3 27 C2.01 27 1.02 27 0 27 C0 18.09 0 9.18 0 0 Z " fill="#514E55" transform="translate(279,217)"/>
<path d="M0 0 C0.33 0 0.66 0 1 0 C1.49485755 7.17543449 0.09577171 10.28507394 -4.5625 15.875 C-6 17 -6 17 -9 17 C-9 16.34 -9 15.68 -9 15 C-8.38125 14.938125 -7.7625 14.87625 -7.125 14.8125 C-4.82533146 14.20005103 -4.82533146 14.20005103 -3.9375 12 C-3.628125 11.01 -3.31875 10.02 -3 9 C-2.45974359 7.39535783 -1.91799139 5.79121875 -1.375 4.1875 C-0.91519488 2.7921508 -0.45636536 1.396478 0 0 Z " fill="#3F558A" transform="translate(155,307)"/>
<path d="M0 0 C1.23243815 4.9297526 0.36227833 6.60127483 -2 11 C-4.1875 12.4375 -4.1875 12.4375 -6 13 C-6.66 12.01 -7.32 11.02 -8 10 C-6.68 8.02 -5.36 6.04 -4 4 C-3.67 4.66 -3.34 5.32 -3 6 C-3.33 6.66 -3.66 7.32 -4 8 C-3.34 8 -2.68 8 -2 8 C-1.34 5.36 -0.68 2.72 0 0 Z " fill="#1B2856" transform="translate(124,276)"/>
<path d="M0 0 C1 3 1 3 -0.1875 6.0625 C-2.01178206 9.01909506 -2.75730189 9.98665684 -6 11 C-6.99 11 -7.98 11 -9 11 C-9 8.36 -9 5.72 -9 3 C-8.34 4.32 -7.68 5.64 -7 7 C-3.17053157 5.54744301 -1.87949705 3.57104439 0 0 Z " fill="#76757F" transform="translate(175,227)"/>
<path d="M0 0 C0.33 0 0.66 0 1 0 C1 2.31 1 4.62 1 7 C-0.98 7.99 -0.98 7.99 -3 9 C-5 6 -5 6 -5 3 C-4.360625 2.87625 -3.72125 2.7525 -3.0625 2.625 C-2.0415625 2.315625 -2.0415625 2.315625 -1 2 C-0.67 1.34 -0.34 0.68 0 0 Z " fill="#111322" transform="translate(177,240)"/>
<path d="M0 0 C-0.66 0 -1.32 0 -2 0 C-1.67 0.66 -1.34 1.32 -1 2 C-0.95977609 4.3329866 -0.95679753 6.66706666 -1 9 C-4 5.25 -4 5.25 -4 3 C-5.65 3.33 -7.3 3.66 -9 4 C-8 1 -8 1 -5.625 -0.25 C-3 -1 -3 -1 0 0 Z " fill="#5F89CC" transform="translate(309,126)"/>
<path d="M0 0 C2.6875 1.4375 2.6875 1.4375 5 3 C4.67 3.66 4.34 4.32 4 5 C2.02 5 0.04 5 -2 5 C-2.33 5.99 -2.66 6.98 -3 8 C-3.93423645 4.98968256 -4.04449911 4.13349732 -3 1 C-2.01 0.67 -1.02 0.34 0 0 Z " fill="#775953" transform="translate(389,238)"/>
<path d="M0 0 C2.625 -0.0625 2.625 -0.0625 6 1 C8.34714739 3.80177504 10.19332308 6.82870541 12 10 C11.34 10.66 10.68 11.32 10 12 C9.69707031 11.44570312 9.39414063 10.89140625 9.08203125 10.3203125 C6.44119287 5.62776126 6.44119287 5.62776126 2.1875 2.5 C1.1046875 2.2525 1.1046875 2.2525 0 2 C0 1.34 0 0.68 0 0 Z " fill="#78A4DE" transform="translate(144,126)"/>
<path d="M0 0 C0.99 0.99 1.98 1.98 3 3 C1.75 5.5 1.75 5.5 0 8 C-1.32 8 -2.64 8 -4 8 C-2.68 5.36 -1.36 2.72 0 0 Z " fill="#374D85" transform="translate(92,279)"/>
<path d="M0 0 C-0.33 1.65 -0.66 3.3 -1 5 C-3.31 5.66 -5.62 6.32 -8 7 C-8.33 6.34 -8.66 5.68 -9 5 C-8.34 5 -7.68 5 -7 5 C-7 4.34 -7 3.68 -7 3 C-2.61538462 0 -2.61538462 0 0 0 Z " fill="#6A4B44" transform="translate(72,237)"/>
<path d="M0 0 C1.60080151 4.00200378 0.29279692 7.04556236 -1 11 C-2.32 11 -3.64 11 -5 11 C-3.55049545 7.2089881 -1.84827434 3.6125362 0 0 Z " fill="#464657" transform="translate(177,232)"/>
<path d="M0 0 C-1.80412643 3.26460973 -2.83394693 4.88929795 -6 7 C-6 5.35 -6 3.7 -6 2 C-7.98 2 -9.96 2 -12 2 C-12 1.67 -12 1.34 -12 1 C-7.95858806 0.36605303 -4.0934693 -0.12404452 0 0 Z " fill="#4E4C7C" transform="translate(84,260)"/>
<path d="M0 0 C1.65 0 3.3 0 5 0 C4.67 2.31 4.34 4.62 4 7 C3.34 7 2.68 7 2 7 C1.67 6.01 1.34 5.02 1 4 C0.34 3.67 -0.32 3.34 -1 3 C-0.67 2.01 -0.34 1.02 0 0 Z " fill="#1F2F64" transform="translate(299,243)"/>
<path d="M0 0 C0.99 0 1.98 0 3 0 C3.02698189 1.62490954 3.04638757 3.24994633 3.0625 4.875 C3.07410156 5.77992188 3.08570312 6.68484375 3.09765625 7.6171875 C3 10 3 10 2 12 C1.34 12 0.68 12 0 12 C0 8.04 0 4.08 0 0 Z " fill="#A4A0A3" transform="translate(66,208)"/>
<path d="M0 0 C1.32 0.66 2.64 1.32 4 2 C4 3.32 4 4.64 4 6 C2.35 6 0.7 6 -1 6 C-1.042721 4.33388095 -1.04063832 2.66617115 -1 1 C-0.67 0.67 -0.34 0.34 0 0 Z " fill="#273D7E" transform="translate(300,201)"/>
<path d="M0 0 C0.33 0 0.66 0 1 0 C0.85851011 1.6045556 0.71164314 3.20863767 0.5625 4.8125 C0.48128906 5.70582031 0.40007812 6.59914063 0.31640625 7.51953125 C0 10 0 10 -1 13 C-1.66 13 -2.32 13 -3 13 C-3.46192125 8.07284004 -1.8275283 4.49267375 0 0 Z " fill="#162768" transform="translate(124,263)"/>
<path d="M0 0 C0.33 0 0.66 0 1 0 C1.268125 1.051875 1.53625 2.10375 1.8125 3.1875 C2.8676829 6.57519246 4.04726378 9.07089567 6 12 C3.5625 11.625 3.5625 11.625 1 11 C-0.20272819 8.59454362 -0.10071472 7.05003047 -0.0625 4.375 C-0.05347656 3.55773437 -0.04445313 2.74046875 -0.03515625 1.8984375 C-0.02355469 1.27195313 -0.01195312 0.64546875 0 0 Z " fill="#A48D8F" transform="translate(385,222)"/>
<path d="M0 0 C0.66 0 1.32 0 2 0 C2.33 1.98 2.66 3.96 3 6 C1.35 6 -0.3 6 -2 6 C-1.125 1.125 -1.125 1.125 0 0 Z " fill="#1C2132" transform="translate(174,201)"/>
<path d="M0 0 C3 1 3 1 4 2 C4.04080783 3.99958364 4.04254356 6.00045254 4 8 C2 7 2 7 1 4 C-1.00016466 2.79117904 -1.00016466 2.79117904 -3 2 C-2.01 1.34 -1.02 0.68 0 0 Z " fill="#5983C6" transform="translate(90,162)"/>
<path d="M0 0 C7.59 0 15.18 0 23 0 C23 0.33 23 0.66 23 1 C15.41 1 7.82 1 0 1 C0 0.67 0 0.34 0 0 Z " fill="#3A486D" transform="translate(123,326)"/>
<path d="M0 0 C0.99 0 1.98 0 3 0 C4.42944945 2.35438733 5.08661261 3.48032433 4.625 6.25 C4.41875 6.8275 4.2125 7.405 4 8 C3.34 8 2.68 8 2 8 C1.34 5.36 0.68 2.72 0 0 Z " fill="#233E8B" transform="translate(120,166)"/>
<path d="M0 0 C7.26 0 14.52 0 22 0 C22 0.33 22 0.66 22 1 C14.74 1 7.48 1 0 1 C0 0.67 0 0.34 0 0 Z " fill="#3A486D" transform="translate(305,326)"/>
<path d="M0 0 C0.33 0.99 0.66 1.98 1 3 C1.721875 2.835 2.44375 2.67 3.1875 2.5 C5.86427545 2.02412881 8.28949487 1.922557 11 2 C7.73454239 3.88391785 4.71888239 4.49287967 1 5 C0.34 3.68 -0.32 2.36 -1 1 C-0.67 0.67 -0.34 0.34 0 0 Z " fill="#716965" transform="translate(53,236)"/>
<path d="M0 0 C2.375 -0.1875 2.375 -0.1875 5 0 C7 3 7 3 6.625 5.1875 C6.41875 5.785625 6.2125 6.38375 6 7 C5.34 7 4.68 7 4 7 C4 5.02 4 3.04 4 1 C2.68 0.67 1.36 0.34 0 0 Z " fill="#99828A" transform="translate(65,207)"/>
<path d="M0 0 C3.53790403 3.69172595 3.59115883 7.09390595 4 12 C0.46209597 8.30827405 0.40884117 4.90609405 0 0 Z " fill="#592347" transform="translate(87,194)"/>
<path d="M0 0 C1.24546405 2.49092811 0.7767578 3.41080733 0 6 C-2.375 6.1875 -2.375 6.1875 -5 6 C-5.66 5.01 -6.32 4.02 -7 3 C-5 3 -3 3 -1 3 C-0.67 2.01 -0.34 1.02 0 0 Z " fill="#3A5088" transform="translate(124,317)"/>
<path d="M0 0 C3.65316671 1.24976756 4.78065836 1.67098753 7 5 C7 5.99 7 6.98 7 8 C6.34 8 5.68 8 5 8 C3.98133771 6.34467377 2.98189187 4.67739862 2 3 C1.34 2.67 0.68 2.34 0 2 C0 1.34 0 0.68 0 0 Z " fill="#C0C0C3" transform="translate(392,208)"/>
<path d="M0 0 C1.98 0 3.96 0 6 0 C6 0.66 6 1.32 6 2 C4.68 2.33 3.36 2.66 2 3 C1.67 4.65 1.34 6.3 1 8 C0.67 8 0.34 8 0 8 C0 5.36 0 2.72 0 0 Z " fill="#B7B5B7" transform="translate(166,206)"/>
<path d="M0 0 C3.25543229 0.34879632 4.01873107 1.02133261 6.25 3.5625 C6.8275 4.366875 7.405 5.17125 8 6 C7.34 6.66 6.68 7.32 6 8 C5.7525 7.38125 5.505 6.7625 5.25 6.125 C3.79371361 3.64931313 2.62187494 3.04874998 0 2 C0 1.34 0 0.68 0 0 Z " fill="#76A2DD" transform="translate(358,162)"/>
<path d="M0 0 C4.95 0 9.9 0 15 0 C15 0.33 15 0.66 15 1 C10.38 1 5.76 1 1 1 C0.67 1.99 0.34 2.98 0 4 C0 2.68 0 1.36 0 0 Z " fill="#394C82" transform="translate(344,290)"/>
<path d="M0 0 C2.31 0 4.62 0 7 0 C7.66 1.65 8.32 3.3 9 5 C8.2575 4.54625 7.515 4.0925 6.75 3.625 C4.53069422 2.31359204 2.32032178 1.11719197 0 0 Z " fill="#847875" transform="translate(386,235)"/>
<path d="M0 0 C0.99 0.33 1.98 0.66 3 1 C3.33 3.64 3.66 6.28 4 9 C2 8 2 8 1.3671875 6.15234375 C1.20476562 5.42144531 1.04234375 4.69054687 0.875 3.9375 C0.70742188 3.20402344 0.53984375 2.47054687 0.3671875 1.71484375 C0.24601562 1.14894531 0.12484375 0.58304688 0 0 Z " fill="#517ABF" transform="translate(308,136)"/>
<path d="M0 0 C0.99 0.33 1.98 0.66 3 1 C2.40138258 3.35171131 1.73075648 5.6859378 1 8 C0.01 8.495 0.01 8.495 -1 9 C-0.67 6.03 -0.34 3.06 0 0 Z " fill="#314D8D" transform="translate(126,275)"/>
<path d="M0 0 C0.66 0.99 1.32 1.98 2 3 C1.125 5.6875 1.125 5.6875 0 8 C-0.66 8 -1.32 8 -2 8 C-2.125 5.125 -2.125 5.125 -2 2 C-1.34 1.34 -0.68 0.68 0 0 Z " fill="#0E1840" transform="translate(122,276)"/>
<path d="M0 0 C0.33 0 0.66 0 1 0 C1 5.61 1 11.22 1 17 C0.67 17 0.34 17 0 17 C0 11.39 0 5.78 0 0 Z " fill="#AFAFAF" transform="translate(401,217)"/>
<path d="M0 0 C5.61 0 11.22 0 17 0 C17 0.33 17 0.66 17 1 C11.39 1 5.78 1 0 1 C0 0.67 0 0.34 0 0 Z " fill="#739FD9" transform="translate(126,123)"/>
<path d="M0 0 C4.95 0 9.9 0 15 0 C14.67 0.66 14.34 1.32 14 2 C7.07 1.505 7.07 1.505 0 1 C0 0.67 0 0.34 0 0 Z " fill="#32416E" transform="translate(91,290)"/>
<path d="M0 0 C0.33 0.99 0.66 1.98 1 3 C4.96 3 8.92 3 13 3 C13 3.33 13 3.66 13 4 C8.71 4 4.42 4 0 4 C0 2.68 0 1.36 0 0 Z " fill="#6F9AD6" transform="translate(344,156)"/>
<path d="M0 0 C5.28 0 10.56 0 16 0 C16 0.33 16 0.66 16 1 C10.72 1 5.44 1 0 1 C0 0.67 0 0.34 0 0 Z " fill="#749FD9" transform="translate(308,123)"/>
<path d="M0 0 C0.33 0 0.66 0 1 0 C1 4.62 1 9.24 1 14 C0.67 14 0.34 14 0 14 C0 9.38 0 4.76 0 0 Z " fill="#355197" transform="translate(283,249)"/>
<path d="M0 0 C0.33 0 0.66 0 1 0 C1 4.62 1 9.24 1 14 C0.67 14 0.34 14 0 14 C0 9.38 0 4.76 0 0 Z " fill="#3C5CA5" transform="translate(283,187)"/>
<path d="M0 0 C4.29 0 8.58 0 13 0 C13 0.33 13 0.66 13 1 C8.71 1 4.42 1 0 1 C0 0.67 0 0.34 0 0 Z " fill="#6590CF" transform="translate(93,159)"/>
<path d="M0 0 C1.32 0.33 2.64 0.66 4 1 C3.01 1 2.02 1 1 1 C1 3.64 1 6.28 1 9 C0.67 9 0.34 9 0 9 C0 6.03 0 3.06 0 0 Z " fill="#5671A1" transform="translate(167,245)"/>
<path d="M0 0 C0.33 0 0.66 0 1 0 C1 3.96 1 7.92 1 12 C0.67 12 0.34 12 0 12 C0 8.04 0 4.08 0 0 Z " fill="#7C7C82" transform="translate(48,219)"/>
<path d="M0 0 C0.33 0 0.66 0 1 0 C1 2.64 1 5.28 1 8 C1.99 8.33 2.98 8.66 4 9 C2.68 9 1.36 9 0 9 C0 6.03 0 3.06 0 0 Z " fill="#7493C1" transform="translate(167,196)"/>
<path d="M0 0 C0.33 0 0.66 0 1 0 C1 3.96 1 7.92 1 12 C0.67 12 0.34 12 0 12 C0 8.04 0 4.08 0 0 Z " fill="#6791CE" transform="translate(166,182)"/>
<path d="M0 0 C0.33 0 0.66 0 1 0 C1 3.63 1 7.26 1 11 C0.67 11 0.34 11 0 11 C0 7.37 0 3.74 0 0 Z " fill="#557CBB" transform="translate(166,257)"/>
<path d="M0 0 C0.33 0 0.66 0 1 0 C1 2.97 1 5.94 1 9 C0.67 9 0.34 9 0 9 C0 6.03 0 3.06 0 0 Z " fill="#354F94" transform="translate(284,265)"/>
<path d="M0 0 C2.31 0 4.62 0 7 0 C7 0.33 7 0.66 7 1 C5.02 1 3.04 1 1 1 C0.67 1.66 0.34 2.32 0 3 C0 2.01 0 1.02 0 0 Z " fill="#7C3855" transform="translate(372,261)"/>
<path d="M0 0 C0.33 0 0.66 0 1 0 C1 2.97 1 5.94 1 9 C0.67 9 0.34 9 0 9 C0 6.03 0 3.06 0 0 Z " fill="#3D5EA8" transform="translate(284,176)"/>
<path d="M0 0 C0.33 0 0.66 0 1 0 C1 2.64 1 5.28 1 8 C0.67 8 0.34 8 0 8 C0 5.36 0 2.72 0 0 Z " fill="#5277B7" transform="translate(165,270)"/>
<path d="M0 0 C0.33 0.99 0.66 1.98 1 3 C-0.98 3 -2.96 3 -5 3 C-5 2.67 -5 2.34 -5 2 C-3.35 2 -1.7 2 0 2 C0 1.34 0 0.68 0 0 Z " fill="#AB8691" transform="translate(64,203)"/>
<path d="M0 0 C0.33 0 0.66 0 1 0 C1 2.64 1 5.28 1 8 C0.67 8 0.34 8 0 8 C0 5.36 0 2.72 0 0 Z " fill="#6993CF" transform="translate(165,172)"/>
<path d="M0 0 C0.33 0 0.66 0 1 0 C1 2.31 1 4.62 1 7 C0.67 7 0.34 7 0 7 C0 4.69 0 2.38 0 0 Z " fill="#4D71B1" transform="translate(164,279)"/>
<path d="M0 0 C0.33 0 0.66 0 1 0 C1 2.31 1 4.62 1 7 C0.67 7 0.34 7 0 7 C0 4.69 0 2.38 0 0 Z " fill="#344E93" transform="translate(285,276)"/>
<path d="M0 0 C0.33 0 0.66 0 1 0 C1 2.31 1 4.62 1 7 C0.67 7 0.34 7 0 7 C0 4.69 0 2.38 0 0 Z " fill="#3D5DA7" transform="translate(285,168)"/>
<path d="M0 0 C0.33 0 0.66 0 1 0 C1 1.98 1 3.96 1 6 C0.67 6 0.34 6 0 6 C0 4.02 0 2.04 0 0 Z " fill="#354E92" transform="translate(286,284)"/>
<path d="M0 0 C1.98 0 3.96 0 6 0 C6 0.33 6 0.66 6 1 C4.02 1 2.04 1 0 1 C0 0.67 0 0.34 0 0 Z " fill="#65584E" transform="translate(57,244)"/>
<path d="M0 0 C1.98 0 3.96 0 6 0 C6 0.33 6 0.66 6 1 C4.02 1 2.04 1 0 1 C0 0.67 0 0.34 0 0 Z " fill="#BCB2B7" transform="translate(386,205)"/>
<path d="M0 0 C0.33 0 0.66 0 1 0 C1 1.98 1 3.96 1 6 C0.67 6 0.34 6 0 6 C0 4.02 0 2.04 0 0 Z " fill="#4B5FA1" transform="translate(78,183)"/>
<path d="M0 0 C0.33 0 0.66 0 1 0 C1 1.98 1 3.96 1 6 C0.67 6 0.34 6 0 6 C0 4.02 0 2.04 0 0 Z " fill="#6A95D1" transform="translate(164,165)"/>
<path d="M0 0 C0.33 0 0.66 0 1 0 C1 1.98 1 3.96 1 6 C0.67 6 0.34 6 0 6 C0 4.02 0 2.04 0 0 Z " fill="#6D97D2" transform="translate(163,158)"/>
<path d="M0 0 C0.33 0 0.66 0 1 0 C1 1.65 1 3.3 1 5 C0.67 5 0.34 5 0 5 C0 3.35 0 1.7 0 0 Z " fill="#4E71B0" transform="translate(163,287)"/>
<path d="M0 0 C0.33 0 0.66 0 1 0 C1 1.65 1 3.3 1 5 C0.67 5 0.34 5 0 5 C0 3.35 0 1.7 0 0 Z " fill="#5276B5" transform="translate(371,265)"/>
<path d="M0 0 C1.65 0 3.3 0 5 0 C5 0.33 5 0.66 5 1 C3.35 1 1.7 1 0 1 C0 0.67 0 0.34 0 0 Z " fill="#6D5B52" transform="translate(388,244)"/>
<path d="M0 0 C1.98 0.99 1.98 0.99 4 2 C2.68 2 1.36 2 0 2 C0 1.34 0 0.68 0 0 Z " fill="#6E717E" transform="translate(279,203)"/>
<path d="M0 0 C0.33 0 0.66 0 1 0 C1 1.65 1 3.3 1 5 C0.67 5 0.34 5 0 5 C0 3.35 0 1.7 0 0 Z " fill="#6D97D2" transform="translate(371,181)"/>
<path d="M0 0 C0.33 0 0.66 0 1 0 C1 1.65 1 3.3 1 5 C0.67 5 0.34 5 0 5 C0 3.35 0 1.7 0 0 Z " fill="#3F60A9" transform="translate(286,161)"/>
<path d="M0 0 C0.33 0 0.66 0 1 0 C1 1.65 1 3.3 1 5 C0.67 5 0.34 5 0 5 C0 3.35 0 1.7 0 0 Z " fill="#3F60AA" transform="translate(287,155)"/>
<path d="M0 0 C0.33 0 0.66 0 1 0 C1 1.65 1 3.3 1 5 C0.67 5 0.34 5 0 5 C0 3.35 0 1.7 0 0 Z " fill="#4263A9" transform="translate(106,153)"/>
<path d="M0 0 C1 4 1 4 1 4 Z " fill="#375495" transform="translate(108,302)"/>
<path d="M0 0 C1 4 1 4 1 4 Z " fill="#4D6FAE" transform="translate(342,300)"/>
<path d="M0 0 C1 4 1 4 1 4 Z " fill="#4666A5" transform="translate(161,298)"/>
<path d="M0 0 C1 4 1 4 1 4 Z " fill="#3B5696" transform="translate(107,298)"/>
<path d="M0 0 C1 4 1 4 1 4 Z " fill="#4F72B1" transform="translate(343,295)"/>
<path d="M0 0 C1 4 1 4 1 4 Z " fill="#354E91" transform="translate(288,296)"/>
<path d="M0 0 C1 4 1 4 1 4 Z " fill="#496AA9" transform="translate(162,293)"/>
<path d="M0 0 C1 4 1 4 1 4 Z " fill="#3A5596" transform="translate(106,293)"/>
<path d="M0 0 C1 4 1 4 1 4 Z " fill="#344E91" transform="translate(287,291)"/>
<path d="M0 0 C1 4 1 4 1 4 Z " fill="#4566A5" transform="translate(370,270)"/>
<path d="M0 0 C1 4 1 4 1 4 Z " fill="#3C589A" transform="translate(79,268)"/>
<path d="M0 0 C1 4 1 4 1 4 Z " fill="#82838A" transform="translate(49,214)"/>
<path d="M0 0 C1 4 1 4 1 4 Z " fill="#DD6383" transform="translate(384,198)"/>
<path d="M0 0 C1 4 1 4 1 4 Z " fill="#DB6181" transform="translate(383,194)"/>
<path d="M0 0 C4 1 4 1 4 1 Z " fill="#DC6181" transform="translate(376,189)"/>
<path d="M0 0 C1 4 1 4 1 4 Z " fill="#4364A9" transform="translate(79,178)"/>
<path d="M0 0 C1 4 1 4 1 4 Z " fill="#6F9AD4" transform="translate(370,176)"/>
<path d="M0 0 C1 4 1 4 1 4 Z " fill="#6E98D3" transform="translate(162,153)"/>
<path d="M0 0 C1 4 1 4 1 4 Z " fill="#6F99D3" transform="translate(343,151)"/>
<path d="M0 0 C1 4 1 4 1 4 Z " fill="#4062AC" transform="translate(288,150)"/>
<path d="M0 0 C1 4 1 4 1 4 Z " fill="#3E5FA6" transform="translate(107,149)"/>
<path d="M0 0 C1 4 1 4 1 4 Z " fill="#6E99D4" transform="translate(161,148)"/>
<path d="M0 0 C1 4 1 4 1 4 Z " fill="#709AD5" transform="translate(160,144)"/>
<path d="" fill="#3C5797" transform="translate(0,0)"/>
<path d="" fill="#364F90" transform="translate(0,0)"/>
<path d="" fill="#3A5495" transform="translate(0,0)"/>
<path d="" fill="#354E90" transform="translate(0,0)"/>
<path d="" fill="#4A6BA8" transform="translate(0,0)"/>
<path d="" fill="#4B6AA7" transform="translate(0,0)"/>
<path d="" fill="#354E90" transform="translate(0,0)"/>
<path d="" fill="#5071AF" transform="translate(0,0)"/>
<path d="" fill="#3D599A" transform="translate(0,0)"/>
<path d="" fill="#9E283D" transform="translate(0,0)"/>
<path d="" fill="#B33549" transform="translate(0,0)"/>
<path d="" fill="#9C283C" transform="translate(0,0)"/>
<path d="" fill="#B03346" transform="translate(0,0)"/>
<path d="" fill="#78767B" transform="translate(0,0)"/>
<path d="" fill="#BABBBD" transform="translate(0,0)"/>
<path d="" fill="#DC6383" transform="translate(0,0)"/>
<path d="" fill="#A62F48" transform="translate(0,0)"/>
<path d="" fill="#A72F48" transform="translate(0,0)"/>
<path d="M0 0 C3 1 3 1 3 1 Z " fill="#D05271" transform="translate(71,189)"/>
<path d="" fill="#4566AB" transform="translate(0,0)"/>
<path d="" fill="#719BD6" transform="translate(0,0)"/>
<path d="" fill="#4162A5" transform="translate(0,0)"/>
<path d="M0 0 C3 1 3 1 3 1 Z " fill="#739FD9" transform="translate(358,160)"/>
<path d="" fill="#709BD5" transform="translate(0,0)"/>
<path d="" fill="#4164AD" transform="translate(0,0)"/>
<path d="" fill="#4264AB" transform="translate(0,0)"/>
<path d="" fill="#719CD6" transform="translate(0,0)"/>
<path d="" fill="#4264AE" transform="translate(0,0)"/>
<path d="" fill="#719CD6" transform="translate(0,0)"/>
<path d="" fill="#4466AD" transform="translate(0,0)"/>
<path d="" fill="#719CD6" transform="translate(0,0)"/>
<path d="" fill="#739ED7" transform="translate(0,0)"/>
<path d="M0 0 C3 1 3 1 3 1 Z " fill="#75A0D9" transform="translate(326,124)"/>
<path d="M0 0 C3 1 3 1 3 1 Z " fill="#6490CF" transform="translate(303,124)"/>
<path d="M0 0 C3 1 3 1 3 1 Z " fill="#6F9BD6" transform="translate(144,124)"/>
<path d="M0 0 C3 1 3 1 3 1 Z " fill="#618DCD" transform="translate(122,124)"/>
<path d="M0 0 C2 1 2 1 2 1 Z " fill="#3B4B75" transform="translate(328,325)"/>
<path d="M0 0 C2 1 2 1 2 1 Z " fill="#384774" transform="translate(302,325)"/>
<path d="M0 0 C2 1 2 1 2 1 Z " fill="#39476E" transform="translate(146,325)"/>
<path d="M0 0 C2 1 2 1 2 1 Z " fill="#3A4B7B" transform="translate(121,325)"/>
<path d="M0 0 C2 1 2 1 2 1 Z " fill="#394A7D" transform="translate(300,324)"/>
<path d="" fill="#384C7D" transform="translate(0,0)"/>
<path d="" fill="#445C93" transform="translate(0,0)"/>
<path d="" fill="#374E8D" transform="translate(0,0)"/>
<path d="" fill="#445D96" transform="translate(0,0)"/>
<path d="" fill="#364E8E" transform="translate(0,0)"/>
<path d="" fill="#47639C" transform="translate(0,0)"/>
<path d="" fill="#4B6AA6" transform="translate(0,0)"/>
<path d="" fill="#47639E" transform="translate(0,0)"/>
<path d="" fill="#3D5898" transform="translate(0,0)"/>
<path d="" fill="#364E8E" transform="translate(0,0)"/>
<path d="" fill="#4B6AA7" transform="translate(0,0)"/>
<path d="" fill="#4866A3" transform="translate(0,0)"/>
<path d="M0 0 C2 1 2 1 2 1 Z " fill="#3A4C7D" transform="translate(89,289)"/>
<path d="" fill="#3F5997" transform="translate(0,0)"/>
<path d="" fill="#4A67A2" transform="translate(0,0)"/>
<path d="" fill="#3F5998" transform="translate(0,0)"/>
<path d="" fill="#4866A3" transform="translate(0,0)"/>
<path d="" fill="#3E5A9B" transform="translate(0,0)"/>
<path d="" fill="#972539" transform="translate(0,0)"/>
<path d="" fill="#1F1B1C" transform="translate(0,0)"/>
<path d="" fill="#A92E40" transform="translate(0,0)"/>
<path d="" fill="#0C0F1F" transform="translate(0,0)"/>
<path d="" fill="#922738" transform="translate(0,0)"/>
<path d="M0 0 C2 1 2 1 2 1 Z " fill="#6A625A" transform="translate(55,243)"/>
<path d="" fill="#706B6A" transform="translate(0,0)"/>
<path d="" fill="#8C8986" transform="translate(0,0)"/>
<path d="" fill="#757172" transform="translate(0,0)"/>
<path d="" fill="#979594" transform="translate(0,0)"/>
<path d="" fill="#8C8D95" transform="translate(0,0)"/>
<path d="M0 0 C2 1 2 1 2 1 Z " fill="#BFBFC1" transform="translate(392,206)"/>
<path d="M0 0 C2 1 2 1 2 1 Z " fill="#A6A7AD" transform="translate(56,206)"/>
<path d="" fill="#191E32" transform="translate(0,0)"/>
<path d="M0 0 C2 1 2 1 2 1 Z " fill="#12172D" transform="translate(174,199)"/>
<path d="" fill="#AC334D" transform="translate(0,0)"/>
<path d="" fill="#DC6282" transform="translate(0,0)"/>
<path d="" fill="#DB5A79" transform="translate(0,0)"/>
<path d="" fill="#749ED7" transform="translate(0,0)"/>
<path d="" fill="#4365AA" transform="translate(0,0)"/>
<path d="" fill="#729ED8" transform="translate(0,0)"/>
<path d="" fill="#759FD8" transform="translate(0,0)"/>
<path d="" fill="#4669AF" transform="translate(0,0)"/>
<path d="M0 0 C2 1 2 1 2 1 Z " fill="#547DC0" transform="translate(88,161)"/>
<path d="M0 0 C2 1 2 1 2 1 Z " fill="#608BCB" transform="translate(90,160)"/>
<path d="" fill="#739DD6" transform="translate(0,0)"/>
<path d="" fill="#4164AD" transform="translate(0,0)"/>
<path d="" fill="#4365AC" transform="translate(0,0)"/>
<path d="" fill="#4265AE" transform="translate(0,0)"/>
<path d="" fill="#739FD8" transform="translate(0,0)"/>
<path d="" fill="#4568AF" transform="translate(0,0)"/>
<path d="" fill="#749FD7" transform="translate(0,0)"/>
<path d="" fill="#4163AA" transform="translate(0,0)"/>
<path d="" fill="#759FD8" transform="translate(0,0)"/>
<path d="" fill="#4668AF" transform="translate(0,0)"/>
<path d="" fill="#76A1D9" transform="translate(0,0)"/>
<path d="M0 0 C2 1 2 1 2 1 Z " fill="#76A2DA" transform="translate(329,125)"/>
<path d="M0 0 C2 1 2 1 2 1 Z " fill="#5580C5" transform="translate(301,125)"/>
<path d="" fill="#3D4F7C" transform="translate(0,0)"/>
<path d="" fill="#3E4F7D" transform="translate(0,0)"/>
<path d="" fill="#3E5183" transform="translate(0,0)"/>
<path d="" fill="#455B91" transform="translate(0,0)"/>
<path d="" fill="#3A4B7C" transform="translate(0,0)"/>
<path d="" fill="#3A4A77" transform="translate(0,0)"/>
<path d="" fill="#3B518A" transform="translate(0,0)"/>
<path d="" fill="#465D93" transform="translate(0,0)"/>
<path d="" fill="#3A4B7F" transform="translate(0,0)"/>
<path d="" fill="#3A4B77" transform="translate(0,0)"/>
<path d="" fill="#3B518B" transform="translate(0,0)"/>
<path d="" fill="#394C83" transform="translate(0,0)"/>
<path d="" fill="#3D5182" transform="translate(0,0)"/>
<path d="" fill="#3E548E" transform="translate(0,0)"/>
<path d="" fill="#3A4D85" transform="translate(0,0)"/>
<path d="" fill="#405588" transform="translate(0,0)"/>
<path d="" fill="#3D5591" transform="translate(0,0)"/>
<path d="" fill="#3F568C" transform="translate(0,0)"/>
<path d="" fill="#43598F" transform="translate(0,0)"/>
<path d="" fill="#3E5692" transform="translate(0,0)"/>
<path d="" fill="#4A659F" transform="translate(0,0)"/>
<path d="" fill="#384F8C" transform="translate(0,0)"/>
<path d="" fill="#3D5796" transform="translate(0,0)"/>
<path d="" fill="#49659F" transform="translate(0,0)"/>
<path d="" fill="#3D5797" transform="translate(0,0)"/>
<path d="" fill="#4A67A3" transform="translate(0,0)"/>
<path d="" fill="#3A4C7D" transform="translate(0,0)"/>
<path d="" fill="#42578B" transform="translate(0,0)"/>
<path d="" fill="#3D5288" transform="translate(0,0)"/>
<path d="" fill="#42588E" transform="translate(0,0)"/>
<path d="" fill="#3D5693" transform="translate(0,0)"/>
<path d="" fill="#445D94" transform="translate(0,0)"/>
<path d="" fill="#3C538D" transform="translate(0,0)"/>
<path d="" fill="#48629C" transform="translate(0,0)"/>
<path d="" fill="#3D548F" transform="translate(0,0)"/>
<path d="" fill="#3F5793" transform="translate(0,0)"/>
<path d="" fill="#46619B" transform="translate(0,0)"/>
<path d="" fill="#A82D41" transform="translate(0,0)"/>
<path d="" fill="#992432" transform="translate(0,0)"/>
<path d="" fill="#9C2635" transform="translate(0,0)"/>
<path d="" fill="#9A2432" transform="translate(0,0)"/>
<path d="" fill="#AB2F41" transform="translate(0,0)"/>
<path d="" fill="#1B181A" transform="translate(0,0)"/>
<path d="" fill="#1A181A" transform="translate(0,0)"/>
<path d="" fill="#0E1325" transform="translate(0,0)"/>
<path d="" fill="#756E67" transform="translate(0,0)"/>
<path d="" fill="#7A746E" transform="translate(0,0)"/>
<path d="" fill="#6A635E" transform="translate(0,0)"/>
<path d="" fill="#7C7670" transform="translate(0,0)"/>
<path d="" fill="#6C6561" transform="translate(0,0)"/>
<path d="" fill="#7E7A76" transform="translate(0,0)"/>
<path d="" fill="#6D6865" transform="translate(0,0)"/>
<path d="" fill="#85827F" transform="translate(0,0)"/>
<path d="" fill="#BBBCBE" transform="translate(0,0)"/>
<path d="" fill="#92939A" transform="translate(0,0)"/>
<path d="" fill="#BCBCBF" transform="translate(0,0)"/>
<path d="" fill="#9B9CA2" transform="translate(0,0)"/>
<path d="" fill="#BDBDC0" transform="translate(0,0)"/>
<path d="" fill="#BDBEC0" transform="translate(0,0)"/>
<path d="" fill="#A6A6A9" transform="translate(0,0)"/>
<path d="" fill="#BDBEC0" transform="translate(0,0)"/>
<path d="" fill="#A2A4AA" transform="translate(0,0)"/>
<path d="" fill="#484A4F" transform="translate(0,0)"/>
<path d="" fill="#222637" transform="translate(0,0)"/>
<path d="" fill="#1D2134" transform="translate(0,0)"/>
<path d="" fill="#47484F" transform="translate(0,0)"/>
<path d="" fill="#DA6080" transform="translate(0,0)"/>
<path d="" fill="#DA6080" transform="translate(0,0)"/>
<path d="" fill="#BD415F" transform="translate(0,0)"/>
<path d="" fill="#486CB2" transform="translate(0,0)"/>
<path d="" fill="#76A1DA" transform="translate(0,0)"/>
<path d="" fill="#75A0D9" transform="translate(0,0)"/>
<path d="" fill="#5179BD" transform="translate(0,0)"/>
<path d="" fill="#729DD8" transform="translate(0,0)"/>
<path d="" fill="#557DC1" transform="translate(0,0)"/>
<path d="" fill="#719DD8" transform="translate(0,0)"/>
<path d="" fill="#5781C4" transform="translate(0,0)"/>
<path d="" fill="#76A1DA" transform="translate(0,0)"/>
<path d="" fill="#4467B1" transform="translate(0,0)"/>
<path d="" fill="#75A0D8" transform="translate(0,0)"/>
<path d="" fill="#4569B2" transform="translate(0,0)"/>
<path d="" fill="#77A2DA" transform="translate(0,0)"/>
<path d="" fill="#4970B8" transform="translate(0,0)"/>
<path d="" fill="#739FD8" transform="translate(0,0)"/>
<path d="" fill="#4569B1" transform="translate(0,0)"/>
<path d="" fill="#77A2DA" transform="translate(0,0)"/>
<path d="" fill="#466CB5" transform="translate(0,0)"/>
<path d="" fill="#77A2DA" transform="translate(0,0)"/>
<path d="" fill="#496FB7" transform="translate(0,0)"/>
<path d="" fill="#78A3DB" transform="translate(0,0)"/>
<path d="" fill="#5077BC" transform="translate(0,0)"/>
<path d="" fill="#77A2DA" transform="translate(0,0)"/>
<path d="" fill="#4970B8" transform="translate(0,0)"/>
<path d="" fill="#78A3DB" transform="translate(0,0)"/>
<path d="" fill="#537BBF" transform="translate(0,0)"/>
<path d="" fill="#75A0D9" transform="translate(0,0)"/>
<path d="" fill="#3559A8" transform="translate(0,0)"/>
<path d="" fill="#78A3DB" transform="translate(0,0)"/>
<path d="" fill="#567EC1" transform="translate(0,0)"/>
<path d="" fill="#77A2DA" transform="translate(0,0)"/>
<path d="" fill="#5078BF" transform="translate(0,0)"/>
<path d="" fill="#78A4DB" transform="translate(0,0)"/>
<path d="" fill="#5983C5" transform="translate(0,0)"/>
<path d="" fill="#76A1DA" transform="translate(0,0)"/>
<path d="" fill="#5C85C8" transform="translate(0,0)"/>
</svg>
